<svg width="11" height="3" viewBox="0 0 11 3" fill="none" xmlns="http://www.w3.org/2000/svg">
<path opacity="0.3" d="M2.08231 0.564C2.19965 0.564 2.30098 0.606667 2.38631 0.692C2.47165 0.777333 2.51431 0.878667 2.51431 0.996V2.068C2.51431 2.18533 2.47165 2.28667 2.38631 2.372C2.30098 2.45733 2.19965 2.5 2.08231 2.5H1.01031C0.892979 2.5 0.791646 2.45733 0.706313 2.372C0.620979 2.28667 0.578313 2.18533 0.578313 2.068V0.996C0.578313 0.878667 0.620979 0.777333 0.706313 0.692C0.791646 0.606667 0.892979 0.564 1.01031 0.564H2.08231ZM6.03544 0.564C6.15277 0.564 6.2541 0.606667 6.33944 0.692C6.42477 0.777333 6.46744 0.878667 6.46744 0.996V2.068C6.46744 2.18533 6.42477 2.28667 6.33944 2.372C6.2541 2.45733 6.15277 2.5 6.03544 2.5H4.96344C4.8461 2.5 4.74477 2.45733 4.65944 2.372C4.5741 2.28667 4.53144 2.18533 4.53144 2.068V0.996C4.53144 0.878667 4.5741 0.777333 4.65944 0.692C4.74477 0.606667 4.8461 0.564 4.96344 0.564H6.03544ZM9.98856 0.564C10.1059 0.564 10.2072 0.606667 10.2926 0.692C10.3779 0.777333 10.4206 0.878667 10.4206 0.996V2.068C10.4206 2.18533 10.3779 2.28667 10.2926 2.372C10.2072 2.45733 10.1059 2.5 9.98856 2.5H8.91656C8.79923 2.5 8.6979 2.45733 8.61256 2.372C8.52723 2.28667 8.48456 2.18533 8.48456 2.068V0.996C8.48456 0.878667 8.52723 0.777333 8.61256 0.692C8.6979 0.606667 8.79923 0.564 8.91656 0.564H9.98856Z" fill="#444444"/>
</svg>
